<svg width="36" height="38" viewBox="0 0 36 38" fill="none" xmlns="http://www.w3.org/2000/svg">
<path d="M31.1349 17.5526C32.1892 16.7706 32.8872 15.4699 32.8872 14.0037C32.8872 11.6052 31.0495 9.66536 28.7772 9.66536C26.5049 9.66536 24.6672 11.6052 24.6672 14.0037C24.6672 15.4699 25.3581 16.7706 26.4195 17.5526C25.5148 17.8834 24.6886 18.3947 23.9905 19.0563C23.0289 18.1917 21.8963 17.53 20.6569 17.139C22.1599 16.1766 23.1713 14.4248 23.1713 12.4323C23.1713 9.39468 20.8421 6.93604 17.9644 6.93604C15.0867 6.93604 12.7574 9.4022 12.7574 12.4323C12.7574 14.4248 13.7618 16.1766 15.2719 17.139C14.0467 17.53 12.9284 18.1842 11.9739 19.0338C11.2758 18.3872 10.4638 17.8834 9.57341 17.5601C10.6276 16.7781 11.3257 15.4774 11.3257 14.0112C11.3257 11.6127 9.48793 9.67288 7.21567 9.67288C4.94341 9.67288 3.10566 11.6127 3.10566 14.0112C3.10566 15.4774 3.7966 16.7781 4.85793 17.5601C2.03007 18.5902 0 21.4248 0 24.7556V25.2518C0 25.2669 0.0142461 25.2819 0.0284923 25.2819H8.74001C8.69015 25.6954 8.66165 26.124 8.66165 26.5526V27.0639C8.66165 29.2744 10.3569 31.0639 12.4511 31.0639H23.4919C25.5861 31.0639 27.2814 29.2744 27.2814 27.0639V26.5526C27.2814 26.124 27.2529 25.6954 27.203 25.2819H35.9715C35.9858 25.2819 36 25.2669 36 25.2518V24.7556C35.9858 21.4172 33.9628 18.5827 31.1349 17.5526ZM25.8069 13.9962C25.8069 12.2669 27.1389 10.8608 28.7772 10.8608C30.4155 10.8608 31.7475 12.2669 31.7475 13.9962C31.7475 15.703 30.444 17.0939 28.8342 17.1315C28.8128 17.1315 28.7986 17.1315 28.7772 17.1315C28.7558 17.1315 28.7416 17.1315 28.7202 17.1315C27.1033 17.1014 25.8069 15.7105 25.8069 13.9962ZM13.8829 12.4323C13.8829 10.0639 15.7064 8.13904 17.9501 8.13904C20.1939 8.13904 22.0174 10.0639 22.0174 12.4323C22.0174 14.718 20.315 16.5902 18.1852 16.718C18.1068 16.718 18.0285 16.718 17.9501 16.718C17.8718 16.718 17.7934 16.718 17.7151 16.718C15.5853 16.5902 13.8829 14.718 13.8829 12.4323ZM4.22398 13.9962C4.22398 12.2669 5.556 10.8608 7.1943 10.8608C8.83261 10.8608 10.1646 12.2669 10.1646 13.9962C10.1646 15.703 8.8611 17.0939 7.25129 17.1315C7.22992 17.1315 7.21567 17.1315 7.1943 17.1315C7.17293 17.1315 7.15869 17.1315 7.13732 17.1315C5.5275 17.1014 4.22398 15.7105 4.22398 13.9962ZM8.93945 24.0714H1.15394C1.47448 20.8684 4.03878 18.3571 7.15156 18.3345C7.16581 18.3345 7.18006 18.3345 7.1943 18.3345C7.20855 18.3345 7.22279 18.3345 7.23704 18.3345C8.71864 18.3421 10.072 18.921 11.1191 19.8608C10.0934 21.0338 9.33122 22.4774 8.93945 24.0714ZM26.1274 27.0639C26.1274 28.6052 24.9379 29.8608 23.4776 29.8608H12.4369C10.9767 29.8608 9.7871 28.6052 9.7871 27.0639V26.5526C9.7871 21.8834 13.3201 18.0639 17.7151 17.9285C17.7934 17.936 17.8789 17.936 17.9573 17.936C18.0356 17.936 18.1211 17.936 18.1994 17.9285C22.5944 18.0639 26.1274 21.8834 26.1274 26.5526V27.0639V27.0639ZM26.9751 24.0714C26.5833 22.4849 25.8354 21.0639 24.8168 19.8909C25.871 18.9285 27.2386 18.3496 28.7345 18.3345C28.7487 18.3345 28.763 18.3345 28.7772 18.3345C28.7915 18.3345 28.8057 18.3345 28.8199 18.3345C31.9327 18.3571 34.497 20.8684 34.8176 24.0714H26.9751Z" fill="white"/>
</svg>
