<svg width="233" height="200" viewBox="0 0 233 200" fill="none" xmlns="http://www.w3.org/2000/svg">
<path d="M111.71 130.968V174.839C111.71 176.258 110.519 177.419 109.064 177.419H98.4838C97.0289 177.419 95.8386 176.258 95.8386 174.839V130.968H111.71Z" fill="#D3A06C"/>
<path d="M87.9032 130.968L67.8529 174.994C67.1652 176.465 65.6839 177.419 64.0174 177.419H52.4052C50.1039 177.419 48.2258 175.587 48.2258 173.342C48.2258 172.619 48.411 171.948 48.7549 171.329L72.0323 130.968H87.9032Z" fill="#D3A06C"/>
<path d="M158.794 171.329C159.138 171.948 159.323 172.619 159.323 173.342C159.323 175.587 157.445 177.419 155.143 177.419H143.531C141.865 177.419 140.383 176.465 139.696 174.994L119.645 130.968H135.516L158.794 171.329Z" fill="#D3A06C"/>
<path d="M42.9356 38.0645H137.103C134.405 42.6064 132.871 47.8967 132.871 53.5483C132.871 55.4322 133.03 57.1354 133.321 58.7096H42.9356C40.0259 58.7096 37.6453 56.387 37.6453 53.5483V43.2257C37.6453 40.387 40.0259 38.0645 42.9356 38.0645Z" fill="#CF9E76"/>
<path d="M164.613 115.484V130.968H135.516H119.645H111.71H95.8388H87.9033H72.0323H42.9355V58.7097H133.321C135.648 71.5871 146.388 75.8968 148.742 89.6775V100C148.742 103.974 150.276 107.587 152.789 110.323C155.699 113.497 159.931 115.484 164.613 115.484Z" fill="#E6E9ED"/>
<path d="M122.29 110.323V120.645H90.5483V115.484V110.323H122.29Z" fill="#FF826E"/>
<path d="M122.29 89.6775V100H90.5483V94.8388V89.6775H122.29Z" fill="#FF826E"/>
<path d="M122.29 69.0322V79.3548H90.5483V74.1935V69.0322H122.29Z" fill="#FF826E"/>
<path d="M74.6774 115.484V120.645H53.5161V110.323H64.0968H74.6774V115.484Z" fill="#B4DD7F"/>
<path d="M74.6774 94.8388V100H64.0968H53.5161V89.6775H64.0968H74.6774V94.8388Z" fill="#B4DD7F"/>
<path d="M74.6774 74.1935V79.3548H64.0968H53.5161V69.0322H74.6774V74.1935Z" fill="#B4DD7F"/>
<path d="M148.742 100H180.484C180.484 108.542 173.368 115.484 164.613 115.484C159.931 115.484 155.699 113.497 152.789 110.323C150.276 107.587 148.742 103.974 148.742 100Z" fill="#AAB2BD"/>
<path d="M180.484 89.6775V100H148.742V89.6775H159.323H169.903H180.484Z" fill="#CCD1D9"/>
<path d="M164.613 22.5806C155.831 22.5806 147.895 26.0386 142.155 31.6386C140.198 33.5483 138.505 35.7161 137.103 38.0644C134.405 42.6064 132.871 47.8967 132.871 53.5483C132.871 55.4322 133.03 57.1354 133.321 58.7096C135.648 71.587 146.388 75.8967 148.742 89.6773H159.322H169.903H180.484C183.129 74.1935 196.355 70.658 196.355 53.5483C196.355 36.4386 182.15 22.5806 164.613 22.5806Z" fill="#FFEAA7"/>
<path d="M175.194 58.7098C178.115 58.7098 180.484 56.399 180.484 53.5485C180.484 50.698 178.115 48.3872 175.194 48.3872C172.272 48.3872 169.903 50.698 169.903 53.5485C169.903 56.399 172.272 58.7098 175.194 58.7098Z" fill="#FCD770"/>
<path d="M154.032 58.7098C156.954 58.7098 159.323 56.399 159.323 53.5485C159.323 50.698 156.954 48.3872 154.032 48.3872C151.111 48.3872 148.742 50.698 148.742 53.5485C148.742 56.399 151.111 58.7098 154.032 58.7098Z" fill="#FCD770"/>
<path d="M164.613 20C152.472 20 141.804 26.1884 135.683 35.4839H42.9355C38.5604 35.4839 35 38.9574 35 43.2258V53.5484C35 56.9084 37.2193 59.7471 40.2903 60.8155V133.548H67.509L46.4588 170.059C45.8848 171.055 45.5806 172.188 45.5806 173.329C45.5806 177.009 48.649 180 52.4184 180H64.0174C66.7181 180 69.1675 178.444 70.2653 176.039L89.6226 133.548H93.1936V174.839C93.1936 177.685 95.5663 180 98.4839 180H109.065C111.982 180 114.355 177.685 114.355 174.839V133.548H117.926L137.283 176.039C138.381 178.444 140.83 180 143.531 180H155.13C158.899 180 161.968 177.009 161.968 173.329C161.968 172.188 161.664 171.055 161.09 170.057L140.039 133.548H167.258V117.858C176.217 116.599 183.129 109.081 183.129 100V89.8942C184.261 83.5639 187.324 79.4374 190.567 75.0684C194.712 69.4839 199 63.7058 199 53.5484C199 35.0503 183.573 20 164.613 20ZM40.2903 43.2258C40.2903 41.8039 41.478 40.6452 42.9355 40.6452H132.879C131.175 44.6194 130.226 48.9781 130.226 53.5484C130.226 54.4568 130.297 55.2877 130.363 56.129H42.9355C41.478 56.129 40.2903 54.9703 40.2903 53.5484V43.2258ZM65.4326 173.941C65.1839 174.485 64.6285 174.839 64.0174 174.839H52.4184C51.564 174.839 50.871 174.16 50.871 173.329C50.871 173.068 50.9397 172.815 51.0694 172.588L73.5797 133.548H83.835L65.4326 173.941ZM109.065 174.839H98.4839V133.548H109.065V174.839ZM156.476 172.588C156.609 172.815 156.677 173.068 156.677 173.329C156.677 174.16 155.984 174.839 155.13 174.839H143.531C142.92 174.839 142.367 174.485 142.116 173.941L123.716 133.548H133.971L156.476 172.588ZM45.5806 128.387V61.2903H131.212C132.707 66.9806 135.707 71.089 138.661 75.071C141.904 79.4374 144.967 83.5664 146.099 89.8968V97.4193H130.228V102.581H146.311C146.581 104.403 147.126 106.137 147.911 107.742H130.226V112.903H151.681C154.424 115.52 157.995 117.301 161.968 117.858V128.387H45.5806ZM151.387 92.2581H177.865L177.847 97.4193H151.387V92.2581ZM161.968 56.129H167.258V87.0968H161.968V56.129ZM175.194 50.9677C176.651 50.9677 177.839 52.1264 177.839 53.5484C177.839 54.9703 176.651 56.129 175.194 56.129C173.736 56.129 172.548 54.9703 172.548 53.5484C172.548 52.1264 173.736 50.9677 175.194 50.9677ZM164.613 112.903C158.227 112.903 152.884 108.462 151.654 102.581H177.572C176.342 108.462 170.998 112.903 164.613 112.903ZM186.279 72.0439C183.132 76.2864 179.905 80.6761 178.341 87.0968H172.548V60.8155C173.379 61.1045 174.262 61.2903 175.194 61.2903C179.569 61.2903 183.129 57.8168 183.129 53.5484C183.129 49.28 179.569 45.8064 175.194 45.8064C171.75 45.8064 168.84 47.9716 167.745 50.9677H161.478C160.383 47.9716 157.474 45.8064 154.03 45.8064C149.655 45.8064 146.094 49.28 146.094 53.5484C146.094 57.8168 149.655 61.2903 154.03 61.2903C154.961 61.2903 155.844 61.1045 156.675 60.8155V87.0968H150.882C149.316 80.6761 146.091 76.2839 142.944 72.0439C138.957 66.671 135.516 62.0335 135.516 53.5484C135.516 37.8968 148.57 25.1613 164.613 25.1613C180.656 25.1613 193.71 37.8968 193.71 53.5484C193.71 62.0335 190.268 66.671 186.279 72.0439ZM156.677 53.5484C156.677 54.9703 155.49 56.129 154.032 56.129C152.575 56.129 151.387 54.9703 151.387 53.5484C151.387 52.1264 152.575 50.9677 154.032 50.9677C155.49 50.9677 156.677 52.1264 156.677 53.5484Z" fill="black"/>
<path d="M87.9031 71.613H77.3225V66.4517H50.8708V81.9355H61.4515V87.0968H50.8708V102.581H61.4515V107.742H50.8708V123.226H77.3225V118.065H87.9031V123.226H124.935V107.742H87.9031V112.903H77.3225V107.742H66.7418V102.581H77.3225V97.4194H87.9031V102.581H124.935V87.0968H87.9031V92.2581H77.3225V87.0968H66.7418V81.9355H77.3225V76.7742H87.9031V81.9355H124.935V66.4517H87.9031V71.613ZM93.1934 112.903H119.645V118.065H93.1934V112.903ZM72.0321 118.065H56.1612V112.903H72.0321V118.065ZM93.1934 92.2581H119.645V97.4194H93.1934V92.2581ZM72.0321 97.4194H56.1612V92.2581H72.0321V97.4194ZM72.0321 76.7742H56.1612V71.613H72.0321V76.7742ZM93.1934 71.613H119.645V76.7742H93.1934V71.613Z" fill="black"/>
<path d="M130.226 118.064H135.516V123.226H130.226V118.064Z" fill="black"/>
<path d="M140.806 118.064H146.097V123.226H140.806V118.064Z" fill="black"/>
</svg>
