<svg width="170" height="145" viewBox="0 0 170 145" fill="none" xmlns="http://www.w3.org/2000/svg">
<g clip-path="url(#clip0)">
<path d="M162.861 90.7912V17.171C162.861 15.0242 160.82 13.2837 158.303 13.2834H162.952H162.952H30.4909C27.9736 13.2834 25.9331 15.0239 25.9331 17.171V90.7912C25.9331 92.9383 27.9736 94.6787 30.4909 94.6787H158.303C160.82 94.6787 162.861 92.9383 162.861 90.7912Z" fill="#E19974"/>
<path d="M162.952 13.2837H157.639C160.156 13.284 162.197 15.0244 162.197 17.1713V90.7914C162.197 92.9386 160.156 94.679 157.639 94.679H162.952C165.469 94.679 167.51 92.9386 167.51 90.7914V17.171C167.51 15.0241 165.469 13.2837 162.952 13.2837Z" fill="#DC8758"/>
<path d="M152.321 86.9036C153.108 86.9036 153.745 86.3598 153.745 85.6889V22.2736C153.745 21.6027 153.108 21.0589 152.321 21.0586H36.473C35.6864 21.0586 35.0488 21.6024 35.0488 22.2736V85.6889C35.0488 86.3598 35.6864 86.9036 36.473 86.9036H156.97H156.97H152.321Z" fill="#728192"/>
<path d="M56.8747 87.13V85.8394C51.4984 85.8394 18.427 85.8394 13.55 85.8394C7.4342 85.8394 2.47656 90.0679 2.47656 95.2844V131.716H62.3523C62.3523 125.717 62.3523 98.4684 62.3523 95.2708C62.3523 91.7984 60.1511 88.7668 56.8747 87.13Z" fill="#EAF6FF"/>
<path d="M56.8748 85.8394C52.6121 85.8394 53.1371 85.8394 50.8552 85.8394L52.7483 86.1569C57.4745 87.2289 60.9574 90.9023 60.9574 95.2708V131.716H67.9323V95.2708C67.9323 90.062 62.9817 85.8394 56.8748 85.8394Z" fill="#D8ECFE"/>
<path d="M30.5457 52.6255H39.7294C51.1572 52.6255 60.4213 60.5272 60.4213 70.2745C60.4213 80.0217 51.1572 87.9234 39.7294 87.9234H30.5457C19.1179 87.9234 9.85376 80.0217 9.85376 70.2745C9.85343 60.5272 19.1175 52.6255 30.5457 52.6255Z" fill="#3D5168"/>
<path d="M47.5508 49.2446H59.2622C63.7649 49.2446 67.4149 52.3579 67.4149 56.1984V56.2412C67.4149 60.0817 63.7649 63.1949 59.2622 63.1949H47.5508V49.2446Z" fill="#F89580"/>
<path d="M22.7242 63.1949H11.0128C6.5101 63.1949 2.86011 60.0817 2.86011 56.2412V56.1984C2.86011 52.3579 6.5101 49.2446 11.0128 49.2446H22.7242V63.1949Z" fill="#FFB09E"/>
<path d="M35.1005 60.9063V60.9006H25.0498V80.9788L35.1005 93.5017V93.5074L45.151 80.9845V60.9063H35.1005Z" fill="#FFA78F"/>
<path d="M43.7374 131.716V94.7571L52.3743 85.7071L45.151 80.9846L35.9639 92.4318C35.7561 92.6906 35.4283 92.8201 35.1006 92.8201V131.716C38.9711 131.716 42.8253 131.716 43.7374 131.716Z" fill="#C4E2FF"/>
<path d="M35.1006 92.8201C34.7729 92.8201 34.4451 92.6906 34.2372 92.4318L25.0502 80.9846L17.8269 85.7071L26.4637 94.7571C26.3057 113.441 26.3352 105.424 26.3352 131.716H35.1006V92.8201Z" fill="#D8ECFE"/>
<path d="M80.4901 130.228V106.531C80.4901 105.71 79.7097 105.044 78.7468 105.044H65.9031C64.9401 105.044 64.1594 105.71 64.1594 106.531V131.716H78.7461C79.7094 131.716 80.4901 131.05 80.4901 130.228Z" fill="#EAF6FF"/>
<path d="M78.4988 105.044L93.9435 97.8478C94.3927 97.6385 94.6723 97.2366 94.6723 96.7998C94.6723 95.6281 93.559 94.6785 92.1852 94.6785H77.1214C73.917 94.6785 71.1008 96.4906 70.2209 99.1186L68.2368 105.044H84.0787H78.4988V105.044Z" fill="#FFCEBF"/>
<path d="M97.765 94.6785H91.4877C92.8615 94.6785 93.9749 95.6281 93.9749 96.7998C93.9749 97.2366 93.6953 97.6385 93.246 97.8478L77.8013 105.044H84.0785L99.5232 97.8481C99.9725 97.6388 100.252 97.2369 100.252 96.8001C100.252 95.6284 99.1387 94.6785 97.765 94.6785Z" fill="#FFB09E"/>
<path d="M84.3263 105.044H78.0491C79.012 105.044 79.7927 105.71 79.7927 106.531V130.229C79.7927 131.05 79.012 131.716 78.0491 131.716H84.3263C85.2893 131.716 86.07 131.05 86.07 130.229V106.531C86.07 105.71 85.2893 105.044 84.3263 105.044Z" fill="#D8ECFE"/>
<path d="M55.0109 59.8457V52.5864C55.0109 40.818 43.4692 32.2402 32.3137 32.2402C20.329 33.3884 11.0115 42.0574 11.0115 52.5864V59.8457C11.0115 70.3747 20.3287 79.0437 32.3137 80.1919C43.4327 80.1919 55.0109 71.6495 55.0109 59.8457Z" fill="#FFCEBF"/>
<path d="M32.314 32.2401C44.2986 33.3883 53.6162 42.0573 53.6162 52.5863V59.8456C53.6162 70.3746 44.299 79.0436 32.314 80.1918C47.0361 81.6022 59.1958 71.8439 59.1958 59.8456V52.5863C59.1958 40.5673 47.0112 30.8314 32.314 32.2401Z" fill="#FFB09E"/>
<path d="M50.4631 63.7937C50.143 63.7937 47.8398 63.7937 47.4988 63.7937C46.3432 63.7937 45.4065 64.593 45.4065 65.5783C45.4065 66.5639 46.3436 67.3629 47.4988 67.3629H50.4631C51.6186 67.3629 52.5554 66.5637 52.5554 65.5783C52.5554 64.593 51.6186 63.7937 50.4631 63.7937Z" fill="#FE8F83"/>
<path d="M19.7381 63.7937H22.7023C23.8579 63.7937 24.7946 64.593 24.7946 65.5783C24.7946 66.5639 23.8576 67.3629 22.7023 67.3629C22.3603 67.3629 20.0575 67.3629 19.7381 67.3629C18.5825 67.3629 17.6458 66.5637 17.6458 65.5783C17.6458 64.593 18.5825 63.7937 19.7381 63.7937Z" fill="#FE8F83"/>
<path d="M35.2046 21.1907H35.0704C33.9122 21.1907 32.7723 21.2564 31.6499 21.3702C45.8351 22.813 56.8359 33.1026 56.8359 45.5903V50.427H63.8108V45.5903C63.8111 32.1147 51.0036 21.1907 35.2046 21.1907Z" fill="#3D5168"/>
<path d="M31.6502 21.3704C17.465 22.8131 6.46387 33.1027 6.46387 45.5905V50.4271H20.5777C28.6557 50.4271 35.2045 44.8416 35.2045 37.9516C35.2045 44.8416 41.753 50.4271 49.831 50.4271H56.8361V45.5905C56.8361 33.103 45.8354 22.8131 31.6502 21.3704Z" fill="#57697D"/>
<path d="M156.97 21.0586H151.657C152.444 21.0586 153.082 21.6024 153.082 22.2736V85.6889C153.082 86.3598 152.444 86.9036 151.657 86.9036H156.97C157.757 86.9036 158.394 86.3598 158.394 85.6889V22.2736C158.394 21.6024 157.757 21.0586 156.97 21.0586Z" fill="#7A8C98"/>
<path d="M139.498 86.9035C140.914 86.9035 142.062 85.9244 142.062 84.7168V77.2215C142.062 76.0138 140.914 75.035 139.498 75.0347H118.425C117.009 75.0347 115.861 76.0138 115.861 77.2215V84.717C115.861 85.9247 117.009 86.9038 118.425 86.9038H144.147H144.147H139.498V86.9035Z" fill="#5DE1C4"/>
<path d="M144.147 75.0347H138.834C140.25 75.0347 141.398 76.0138 141.398 77.2215V84.717C141.398 85.9247 140.25 86.9038 138.834 86.9038H144.147C145.563 86.9038 146.711 85.9247 146.711 84.717V77.2215C146.711 76.0135 145.563 75.0347 144.147 75.0347Z" fill="#0ED2B3"/>
<path d="M40.2316 63.9006C38.8559 63.9006 37.7412 64.8517 37.7412 66.0248C37.7412 67.2603 36.5627 68.2654 35.1143 68.2654C33.6662 68.2654 32.4877 67.2603 32.4877 66.0248C32.4877 64.8517 31.373 63.9006 29.9973 63.9006C28.6216 63.9006 27.5068 64.8517 27.5068 66.0248C27.5068 69.6028 30.9194 72.5138 35.1143 72.5138C39.3092 72.5138 42.7221 69.6028 42.7221 66.0248C42.7221 64.8517 41.6074 63.9006 40.2316 63.9006Z" fill="black"/>
<path d="M46.8754 54.6868C45.4997 54.6868 44.385 55.6378 44.385 56.811V59.6007C44.385 60.7739 45.4997 61.7249 46.8754 61.7249C48.2512 61.7249 49.3659 60.7739 49.3659 59.6007V58.857C50.4145 58.6066 51.1836 57.7855 51.1836 56.8112C51.1836 55.6381 50.0689 54.687 48.6931 54.687H46.8754V54.6868Z" fill="black"/>
<path d="M23.3534 54.6868H21.5361C20.1604 54.6868 19.0457 55.6378 19.0457 56.811C19.0457 57.785 19.8144 58.6061 20.863 58.8567V59.6007C20.863 60.7739 21.9777 61.7249 23.3534 61.7249C24.7292 61.7249 25.8439 60.7739 25.8439 59.6007V56.811C25.8439 55.6378 24.7292 54.6868 23.3534 54.6868Z" fill="black"/>
<path d="M162.952 11.1594H143.028C141.652 11.1594 140.538 12.1105 140.538 13.2836C140.538 14.4567 141.652 15.4078 143.028 15.4078H162.952C164.075 15.4078 165.019 16.1796 165.019 17.1712V90.7914C165.019 91.7637 164.092 92.5547 162.952 92.5547C157.876 92.5547 73.2199 92.5547 70.0604 92.5547C69.7316 91.3785 69.1319 90.1357 68.3014 89.028H156.969C159.128 89.028 160.884 87.53 160.884 85.6888V22.2738C160.884 20.4325 159.128 18.9346 156.969 18.9346C28.821 18.9346 36.2186 18.8674 35.4051 19.0688C33.0986 19.0572 30.8496 19.228 28.4232 19.6814V17.1715C28.4232 16.1992 29.3506 15.4081 30.4906 15.4081H131.406C132.782 15.4081 133.897 14.457 133.897 13.2839C133.897 12.1108 132.782 11.1597 131.406 11.1597H30.4906C26.6042 11.1597 23.4423 13.8566 23.4423 17.1715V20.997C12.0468 24.9356 3.98703 34.4749 3.98703 45.5907V49.3916C1.7101 51.104 0.382863 53.572 0.382863 56.1987V56.2414C0.382863 59.9752 3.2565 63.8143 8.21612 64.969C7.65328 66.6894 7.3624 68.4649 7.3624 70.275C7.3624 75.3252 9.6101 80.1001 13.545 83.7161C6.07468 83.7246 0 88.9107 0 95.2847V115.057C0 116.23 1.11472 117.182 2.49044 117.182C3.86616 117.182 4.98088 116.23 4.98088 115.057V95.2847C4.98088 91.2479 8.83143 87.9639 13.5639 87.9639H16.8865L24.0908 95.5127V109.267C23.9056 109.739 23.9623 108.372 23.9623 129.592H4.98088V124.971C4.98088 123.797 3.86616 122.846 2.49044 122.846C1.11472 122.846 0 123.797 0 124.971V131.716C0 132.89 1.11472 133.841 2.49044 133.841H84.3263C86.661 133.841 88.5603 132.221 88.5603 130.229V106.532C88.5603 106.161 88.4939 105.802 88.3714 105.465L100.717 99.713C101.965 99.1312 102.741 98.0167 102.742 96.8037H162.952C166.838 96.8037 170 94.1071 170 90.7919V17.1712C170 13.8368 166.82 11.1594 162.952 11.1594ZM118.425 84.7796C118.384 84.7796 118.351 84.7515 118.351 84.717V77.2214C118.351 77.1869 118.384 77.1588 118.425 77.1588H144.147C144.188 77.1588 144.221 77.1869 144.221 77.2214V84.717C144.221 84.7515 144.188 84.7796 144.147 84.7796H118.425ZM155.903 23.1829V84.7796H149.198C149.198 84.7586 149.201 84.738 149.201 84.717V77.2214C149.201 74.8443 146.934 72.9104 144.147 72.9104H118.424C115.637 72.9104 113.37 74.8443 113.37 77.2214V84.717C113.37 84.7382 113.373 84.7586 113.374 84.7796H62.5675C60.6628 84.0336 58.7946 83.7155 56.7342 83.7155C62.1816 78.7004 64.2198 71.5699 62.07 64.9801C66.9217 63.8882 69.9189 60.1862 69.9189 56.2414V56.1987C69.9189 53.6173 68.6176 51.1204 66.3151 49.3893C66.3151 45.1497 67.2515 35.5673 57.4169 27.0209C55.7221 25.5482 53.8592 24.2646 51.8636 23.1829H155.903ZM35.2185 89.7474L28.8522 81.8156C30.901 82.2314 33.0265 82.4498 35.1995 82.4498C37.412 82.4498 39.5601 82.2138 41.6159 81.7763L35.2185 89.7474ZM47.759 79.9367V79.7489C51.9638 77.8159 55.4348 74.9709 57.8612 71.5589C57.4674 75.6209 55.23 79.4872 51.2994 82.2512C47.9227 80.0435 48.7917 80.6119 47.759 79.9367ZM61.7001 52.5515H62.9878C63.3418 52.7402 64.9384 54.1523 64.9384 56.1987V56.2414C64.9384 58.0323 63.7825 59.7747 61.6782 60.5847C61.7313 59.1926 61.7001 56.5357 61.7001 52.5515ZM56.7153 52.5515C56.7202 52.9495 56.7199 52.5235 56.7192 59.6719C56.701 60.8917 56.6581 62.4721 55.9645 64.6558C53.4375 72.587 44.9664 78.2011 35.1995 78.2011C25.1292 78.2011 16.6414 72.3595 14.2141 64.4694C14.2065 64.4439 14.1982 64.4187 14.1905 64.3935C13.7442 62.9168 13.5161 61.2828 13.5161 59.846C13.5161 49.553 13.5168 53.4822 13.5168 52.5515H20.5916C26.7799 52.5515 32.2113 49.7368 35.2185 45.5289C38.2256 49.7368 43.6571 52.5515 49.8453 52.5515H56.7153ZM22.6773 79.8432V79.9367L19.0482 82.3093C15.2269 79.6535 12.8357 75.8047 12.4117 71.6186C14.8875 75.0697 18.4608 77.9519 22.6773 79.8432ZM8.96824 45.5907C8.96824 33.2406 20.7809 23.3152 35.084 23.3152C49.3293 23.3152 60.6136 32.9325 61.301 44.4685C61.3442 45.2066 61.3345 45.3978 61.3342 48.3031C56.5854 48.3031 54.6166 48.3031 49.845 48.3031C43.153 48.3031 37.7086 43.6594 37.7086 37.9515C37.7086 36.7784 36.5938 35.8273 35.2181 35.8273C33.8424 35.8273 32.7277 36.7784 32.7277 37.9515C32.7277 43.6594 27.2833 48.3031 20.5913 48.3031C16.4867 48.3031 13.0712 48.3031 8.9679 48.3031V45.5907H8.96824ZM5.36407 56.2414V56.1987C5.36407 54.7887 6.08232 53.4641 7.31458 52.5515H8.53523C8.53523 60.4674 8.52992 60.0653 8.54885 60.5586C6.46485 59.7098 5.36407 57.9371 5.36407 56.2414ZM28.5125 93.4166L21.4945 86.0629C23.3092 84.8764 23.4354 84.7938 24.5969 84.0344L32.7277 94.1651V129.592H28.9432V110.617C29.1265 110.15 29.0717 111.22 29.0717 94.7574C29.0717 94.2688 28.8741 93.7952 28.5125 93.4166ZM37.7089 94.1651L45.8393 84.0344L48.9418 86.0626L41.9237 93.4163C41.5621 93.7952 41.3645 94.2688 41.3645 94.7574V129.592H37.7086V94.1651H37.7089ZM46.3454 95.5127L53.5497 87.9639H56.8883C61.6829 87.9639 65.4557 91.321 65.4557 95.2711V102.94C63.3773 103.128 61.6692 104.646 61.6692 106.532V129.592H46.3454V95.5127ZM83.5795 129.592H66.6501V107.169H83.5795V129.592ZM83.4426 102.92H71.538L72.6155 99.7025C73.1873 97.9955 75.0402 96.8031 77.1212 96.8031H96.5712L83.4426 102.92Z" fill="black"/>
<path d="M116.515 52.1024H128.034C129.41 52.1024 130.524 51.1513 130.524 49.9782C130.524 48.8051 129.41 47.854 128.034 47.854H116.515C115.139 47.854 114.024 48.8051 114.024 49.9782C114.024 51.1513 115.139 52.1024 116.515 52.1024Z" fill="black"/>
<path d="M116.515 58.9974H128.034C129.41 58.9974 130.524 58.0463 130.524 56.8732C130.524 55.7001 129.41 54.749 128.034 54.749H116.515C115.139 54.749 114.024 55.7001 114.024 56.8732C114.024 58.0463 115.139 58.9974 116.515 58.9974Z" fill="black"/>
<path d="M85.7678 55.5498H90.2476V59.3708C90.2476 60.5439 91.3623 61.495 92.738 61.495C94.1137 61.495 95.2285 60.5439 95.2285 59.3708V55.5498H99.5442C100.92 55.5498 102.035 54.5987 102.035 53.4256C102.035 52.2525 100.92 51.3014 99.5442 51.3014H95.2285V47.6203C95.2285 46.4472 94.1137 45.4961 92.738 45.4961C91.3623 45.4961 90.2476 46.4472 90.2476 47.6203V51.3014H85.7678C84.3921 51.3014 83.2773 52.2525 83.2773 53.4256C83.2773 54.5987 84.3921 55.5498 85.7678 55.5498Z" fill="black"/>
<path d="M73.3923 46.732H75.3564V62.3834C75.3564 63.5565 76.4711 64.5076 77.8469 64.5076C79.2226 64.5076 80.3373 63.5565 80.3373 62.3834V44.6078C80.3373 43.4347 79.2226 42.4836 77.8469 42.4836H73.3923C72.0166 42.4836 70.9019 43.4347 70.9019 44.6078C70.9019 45.781 72.0169 46.732 73.3923 46.732Z" fill="black"/>
<path d="M135.254 50.3022C136.607 50.5285 137.913 49.7779 138.178 48.6272C138.431 47.5291 139.569 46.7318 140.886 46.7318C142.388 46.7318 143.817 47.7979 143.582 49.3772C143.213 50.6103 142.381 52.0395 135.586 59.6294C134.304 61.06 133.662 61.7779 134.083 62.9468C134.437 63.9262 135.498 64.5071 136.55 64.5071H147.005C148.381 64.5071 149.496 63.556 149.496 62.3829C149.496 61.2098 148.381 60.2587 147.005 60.2587H141.27C146.429 54.3501 147.844 52.5128 148.46 50.2424C149.461 46.5894 145.961 42.4832 140.886 42.4832C137.195 42.4832 134.001 44.7226 133.29 47.8081C133.025 48.9597 133.904 50.0765 135.254 50.3022Z" fill="black"/>
<path d="M103.011 46.732H104.975V62.3834C104.975 63.5565 106.09 64.5076 107.466 64.5076C108.841 64.5076 109.956 63.5565 109.956 62.3834V44.6078C109.956 43.4347 108.841 42.4836 107.466 42.4836H103.011C101.635 42.4836 100.521 43.4347 100.521 44.6078C100.521 45.781 101.635 46.732 103.011 46.732Z" fill="black"/>
</g>
<defs>
<clipPath id="clip0">
<rect width="170" height="145" fill="white"/>
</clipPath>
</defs>
</svg>
