<svg width="121" height="112" viewBox="0 0 121 112" fill="none" xmlns="http://www.w3.org/2000/svg">
<path d="M120.308 36.5157L108.238 25.3437V2.1875C108.238 0.979344 107.18 0 105.875 0H71.0587C69.7537 0 68.6954 0.979344 68.6954 2.1875C68.6954 3.39566 69.7537 4.375 71.0587 4.375H103.512V48.9687L60.3937 88.8799L17.4883 49.1658V4.375H49.7891C51.0941 4.375 52.1524 3.39566 52.1524 2.1875C52.1524 0.979344 51.0941 0 49.7891 0H15.125C13.82 0 12.7617 0.979344 12.7617 2.1875V25.3437L0.692205 36.5157C0.24909 36.9259 0 37.4824 0 38.0625V101.062C0 107.093 5.30084 112 11.8164 112H109.184C115.699 112 121 107.093 121 101.062V38.0625C121 37.4824 120.751 36.9259 120.308 36.5157ZM116.273 101.062C116.273 102.074 116.024 103.033 115.581 103.89L83.2213 73.9375L116.273 43.3438V101.062ZM108.238 31.5311L115.295 38.0625L108.238 44.5937V31.5311ZM5.41948 103.89C4.97565 103.033 4.72656 102.074 4.72656 101.062V43.5404L37.6724 74.0359L5.41948 103.89ZM12.7617 44.7906L5.59909 38.1609L12.7617 31.5311V44.7906ZM11.8164 107.625C10.7234 107.625 9.68733 107.394 8.76187 106.984L41.0147 77.1295L58.7226 93.5202C59.1659 93.9304 59.7669 94.1609 60.3937 94.1609C61.0204 94.1609 61.6214 93.9304 62.0647 93.5202L79.8789 77.0313L112.238 106.984C111.313 107.395 110.277 107.625 109.184 107.625H11.8164V107.625Z" fill="#FAE3E5"/>
<path d="M60.4243 4.375C61.0459 4.375 61.6556 4.14094 62.0952 3.73406C62.5345 3.32719 62.7876 2.76281 62.7876 2.1875C62.7876 1.61219 62.5347 1.04781 62.0952 0.640938C61.6556 0.234063 61.0459 0 60.4243 0C59.8004 0 59.193 0.234063 58.7535 0.640938C58.3141 1.04781 58.061 1.61219 58.061 2.1875C58.061 2.76281 58.3139 3.32719 58.7535 3.73406C59.193 4.14094 59.8004 4.375 60.4243 4.375Z" fill="#FAE3E5"/>
<path d="M38.1442 26.5076C34.9379 31.9 34.0945 38.1167 35.7698 44.0122C37.2208 49.1191 40.3536 53.5248 44.8301 56.7529C49.14 59.8611 54.5087 61.6496 59.9466 61.7887C59.9691 61.7894 59.9911 61.7896 60.013 61.7896C61.288 61.7896 62.3387 60.8496 62.3742 59.6624C62.4101 58.4549 61.3818 57.4487 60.0771 57.4154C50.8175 57.1785 42.702 51.2093 40.3406 42.8996C37.4969 32.8912 43.6206 22.5904 54.2818 19.449C59.6904 17.8551 65.432 18.3246 70.4488 20.7702C75.4556 23.2108 79.1161 27.3124 80.76 32.322C81.8072 35.9825 81.4676 39.376 79.6271 43.66C79.1022 44.8813 77.4727 47.7222 73.682 47.7222C73.0824 47.7222 72.4758 47.4649 71.9736 46.9979C71.3001 46.3714 70.9167 45.4868 70.9217 44.5602V26.4748C70.9217 25.2666 69.8634 24.2873 68.5584 24.2873C67.2532 24.2873 66.1951 25.2666 66.1951 26.4748V27.1715C64.3504 25.7481 62.0589 24.9354 59.4917 24.9354C53.523 24.9354 47.3492 29.725 47.3492 37.74C47.3492 41.2726 48.5587 44.5812 50.7549 47.0561C52.9811 49.5654 56.0751 51.0043 59.2431 51.0043C62.2125 51.0043 64.8873 49.7907 66.9237 47.7673C67.3335 48.6269 67.9061 49.4166 68.6232 50.0836C70.0189 51.3819 71.8155 52.097 73.682 52.097C79.1431 52.097 82.6024 48.5738 84.019 45.2766C86.2405 40.106 86.641 35.7522 85.3169 31.1597C85.3103 31.137 85.3032 31.1142 85.2959 31.0917C83.289 24.9361 78.7983 19.8956 72.6511 16.8992C66.5054 13.9032 59.4725 13.3281 52.848 15.28C46.5716 17.1296 41.3497 21.1167 38.1442 26.5076ZM59.2433 46.6293C55.2912 46.6293 52.076 42.6415 52.076 37.7398C52.076 32.4633 55.8466 29.3102 59.4919 29.3102C63.4195 29.3102 66.1625 32.7494 66.1625 37.6735C66.1623 42.6118 63.0584 46.6293 59.2433 46.6293Z" fill="#FAE3E5"/>
</svg>
