<svg width="36" height="38" viewBox="0 0 36 38" fill="none" xmlns="http://www.w3.org/2000/svg">
<path d="M34.2563 15.6275H32.5067C32.3834 15.627 32.2634 15.5859 32.1642 15.5102C32.0649 15.4345 31.9915 15.3281 31.9545 15.2063C31.6735 14.1908 31.2815 13.2118 30.7862 12.2882C30.729 12.1747 30.7082 12.0451 30.7271 11.9185C30.7459 11.7919 30.8032 11.6748 30.8908 11.5843L32.1231 10.3027C32.4496 9.96431 32.633 9.50554 32.633 9.02722C32.633 8.54889 32.4496 8.09012 32.1231 7.75168L29.6586 5.20062C29.3316 4.8626 28.8884 4.67274 28.4263 4.67274C27.9642 4.67274 27.521 4.8626 27.1941 5.20062L25.956 6.47615C25.8685 6.56679 25.7554 6.62617 25.6331 6.64565C25.5108 6.66513 25.3857 6.64369 25.2759 6.58445C24.3827 6.07228 23.4372 5.66464 22.4569 5.36908C22.3391 5.33295 22.2359 5.25833 22.1625 5.15638C22.0892 5.05442 22.0497 4.93063 22.05 4.80352V2.9925C22.0486 2.51422 21.8645 2.05594 21.5377 1.71775C21.211 1.37956 20.7683 1.18893 20.3062 1.1875H16.8188C16.3567 1.18893 15.914 1.37956 15.5873 1.71775C15.2605 2.05594 15.0764 2.51422 15.075 2.9925V4.80352C15.0745 4.93114 15.0348 5.05531 14.9617 5.15805C14.8886 5.2608 14.7857 5.33681 14.6681 5.3751C13.6871 5.66595 12.7413 6.07169 11.8491 6.58445C11.7393 6.64369 11.6142 6.66513 11.4919 6.64565C11.3696 6.62617 11.2565 6.56679 11.169 6.47615L9.93094 5.20062C9.60398 4.8626 9.16078 4.67274 8.69869 4.67274C8.23659 4.67274 7.79339 4.8626 7.46644 5.20062L5.00194 7.75168C4.67539 8.09012 4.49197 8.54889 4.49197 9.02722C4.49197 9.50554 4.67539 9.96431 5.00194 10.3027L6.23419 11.5843C6.32175 11.6748 6.37912 11.7919 6.39794 11.9185C6.41676 12.0451 6.39604 12.1747 6.33881 12.2882C5.84402 13.2128 5.45022 14.1915 5.16469 15.2063C5.12978 15.3282 5.05769 15.4351 4.9592 15.511C4.86071 15.5869 4.74111 15.6278 4.61831 15.6275H2.86875C2.4067 15.6289 1.96397 15.8196 1.63726 16.1577C1.31054 16.4959 1.12638 16.9542 1.125 17.4325V21.0425C1.12638 21.5208 1.31054 21.9791 1.63726 22.3172C1.96397 22.6554 2.4067 22.8461 2.86875 22.8475H4.61831C4.74161 22.848 4.86156 22.8891 4.96082 22.9648C5.06008 23.0405 5.13351 23.1469 5.1705 23.2687C5.45149 24.2842 5.84346 25.2632 6.33881 26.1867C6.39604 26.3003 6.41676 26.4299 6.39794 26.5565C6.37912 26.6831 6.32175 26.8002 6.23419 26.8907L5.00194 28.1722C4.83983 28.3396 4.71121 28.5384 4.62346 28.7573C4.5357 28.9761 4.49053 29.2108 4.49053 29.4478C4.49053 29.6848 4.5357 29.9194 4.62346 30.1383C4.71121 30.3572 4.83983 30.556 5.00194 30.7233L7.46644 33.2744C7.79339 33.6124 8.23659 33.8023 8.69869 33.8023C9.16078 33.8023 9.60398 33.6124 9.93094 33.2744L11.169 31.9988C11.2565 31.9082 11.3696 31.8488 11.4919 31.8293C11.6142 31.8099 11.7393 31.8313 11.8491 31.8905C12.7423 32.4027 13.6878 32.8104 14.6681 33.1059C14.7859 33.142 14.8891 33.2167 14.9625 33.3186C15.0358 33.4206 15.0753 33.5444 15.075 33.6715V35.4825C15.0764 35.9608 15.2605 36.4191 15.5873 36.7572C15.914 37.0954 16.3567 37.2861 16.8188 37.2875H20.3062C20.7683 37.2861 21.211 37.0954 21.5377 36.7572C21.8645 36.4191 22.0486 35.9608 22.05 35.4825V33.6715C22.0505 33.5439 22.0902 33.4197 22.1633 33.3169C22.2364 33.2142 22.3393 33.1382 22.4569 33.0999C23.4379 32.809 24.3837 32.4033 25.2759 31.8905C25.3857 31.8313 25.5108 31.8099 25.6331 31.8293C25.7554 31.8488 25.8685 31.9082 25.956 31.9988L27.1941 33.2744C27.521 33.6124 27.9642 33.8023 28.4263 33.8023C28.8884 33.8023 29.3316 33.6124 29.6586 33.2744L32.1231 30.7233C32.2852 30.556 32.4138 30.3572 32.5015 30.1383C32.5893 29.9194 32.6345 29.6848 32.6345 29.4478C32.6345 29.2108 32.5893 28.9761 32.5015 28.7573C32.4138 28.5384 32.2852 28.3396 32.1231 28.1722L30.8908 26.8907C30.8032 26.8002 30.7459 26.6831 30.7271 26.5565C30.7082 26.4299 30.729 26.3003 30.7862 26.1867C31.281 25.2622 31.6748 24.2835 31.9603 23.2687C31.9952 23.1468 32.0673 23.0399 32.1658 22.964C32.2643 22.8881 32.3839 22.8472 32.5067 22.8475H34.2563C34.7183 22.8461 35.161 22.6554 35.4877 22.3172C35.8145 21.9791 35.9986 21.5208 36 21.0425V17.4325C35.9986 16.9542 35.8145 16.4959 35.4877 16.1577C35.161 15.8196 34.7183 15.6289 34.2563 15.6275ZM34.8375 21.0425C34.8375 21.2021 34.7763 21.3551 34.6673 21.4679C34.5583 21.5808 34.4104 21.6442 34.2563 21.6442H32.5067C32.1319 21.6447 31.7672 21.7702 31.4667 22.0021C31.1662 22.2341 30.9459 22.56 30.8385 22.9317C30.5809 23.8632 30.2221 24.7614 29.769 25.6091C29.5913 25.9512 29.5243 26.3432 29.5776 26.7276C29.631 27.112 29.8019 27.4686 30.0654 27.7451L31.3035 29.0206C31.4116 29.1347 31.4721 29.288 31.4721 29.4478C31.4721 29.6075 31.4116 29.7609 31.3035 29.875L28.839 32.426C28.7279 32.5361 28.5801 32.5975 28.4263 32.5975C28.2726 32.5975 28.1247 32.5361 28.0136 32.426L26.7814 31.1445C26.5143 30.8717 26.1698 30.6947 25.7984 30.6395C25.4271 30.5843 25.0484 30.6537 24.7179 30.8376C23.8989 31.3066 23.0312 31.678 22.1314 31.9447C21.7723 32.0559 21.4574 32.2839 21.2333 32.595C21.0093 32.906 20.888 33.2835 20.8875 33.6715V35.4825C20.8875 35.6421 20.8263 35.7951 20.7173 35.9079C20.6083 36.0208 20.4604 36.0842 20.3062 36.0842H16.8188C16.6646 36.0842 16.5167 36.0208 16.4077 35.9079C16.2987 35.7951 16.2375 35.6421 16.2375 35.4825V33.6715C16.237 33.2835 16.1157 32.906 15.8917 32.595C15.6676 32.2839 15.3527 32.0559 14.9936 31.9447C14.0938 31.678 13.2261 31.3066 12.4071 30.8376C12.1538 30.6951 11.87 30.6207 11.5817 30.621C11.1187 30.6207 10.6741 30.8087 10.3436 31.1445L9.11137 32.426C9.00028 32.5361 8.85245 32.5975 8.69869 32.5975C8.54493 32.5975 8.3971 32.5361 8.286 32.426L5.8215 29.875C5.71344 29.7609 5.65291 29.6075 5.65291 29.4478C5.65291 29.288 5.71344 29.1347 5.8215 29.0206L7.05956 27.7451C7.32307 27.4686 7.49404 27.112 7.54739 26.7276C7.60074 26.3432 7.53367 25.9512 7.356 25.6091C6.90292 24.7614 6.54413 23.8632 6.2865 22.9317C6.17905 22.56 5.95876 22.2341 5.65828 22.0021C5.3578 21.7702 4.99313 21.6447 4.61831 21.6442H2.86875C2.71459 21.6442 2.56675 21.5808 2.45774 21.4679C2.34874 21.3551 2.2875 21.2021 2.2875 21.0425V17.4325C2.2875 17.2729 2.34874 17.1199 2.45774 17.0071C2.56675 16.8942 2.71459 16.8308 2.86875 16.8308H4.61831C4.99313 16.8303 5.3578 16.7048 5.65828 16.4729C5.95876 16.2409 6.17905 15.915 6.2865 15.5433C6.54413 14.6118 6.90292 13.7136 7.356 12.8658C7.53367 12.5238 7.60074 12.1318 7.54739 11.7474C7.49404 11.363 7.32307 11.0064 7.05956 10.7299L5.8215 9.4544C5.71344 9.34035 5.65291 9.18697 5.65291 9.02722C5.65291 8.86747 5.71344 8.71409 5.8215 8.60003L8.286 6.04897C8.3971 5.93893 8.54493 5.87752 8.69869 5.87752C8.85245 5.87752 9.00028 5.93893 9.11137 6.04897L10.3436 7.33052C10.6107 7.60328 10.9552 7.78025 11.3266 7.83548C11.6979 7.89071 12.0766 7.82127 12.4071 7.63737C13.2261 7.16837 14.0938 6.79698 14.9936 6.5303C15.3527 6.41908 15.6676 6.19105 15.8917 5.88002C16.1157 5.56898 16.237 5.1915 16.2375 4.80352V2.9925C16.2375 2.83293 16.2987 2.67989 16.4077 2.56706C16.5167 2.45422 16.6646 2.39083 16.8188 2.39083H20.3062C20.4604 2.39083 20.6083 2.45422 20.7173 2.56706C20.8263 2.67989 20.8875 2.83293 20.8875 2.9925V4.80352C20.888 5.1915 21.0093 5.56898 21.2333 5.88002C21.4574 6.19105 21.7723 6.41908 22.1314 6.5303C23.0312 6.79698 23.8989 7.16837 24.7179 7.63737C25.0484 7.82127 25.4271 7.89071 25.7984 7.83548C26.1698 7.78025 26.5143 7.60328 26.7814 7.33052L28.0136 6.04897C28.1247 5.93893 28.2726 5.87752 28.4263 5.87752C28.5801 5.87752 28.7279 5.93893 28.839 6.04897L31.3035 8.60003C31.4116 8.71409 31.4721 8.86747 31.4721 9.02722C31.4721 9.18697 31.4116 9.34035 31.3035 9.4544L30.0654 10.7299C29.8019 11.0064 29.631 11.363 29.5776 11.7474C29.5243 12.1318 29.5913 12.5238 29.769 12.8658C30.2221 13.7136 30.5809 14.6118 30.8385 15.5433C30.9459 15.915 31.1662 16.2409 31.4667 16.4729C31.7672 16.7048 32.1319 16.8303 32.5067 16.8308H34.2563C34.4104 16.8308 34.5583 16.8942 34.6673 17.0071C34.7763 17.1199 34.8375 17.2729 34.8375 17.4325V21.0425Z" fill="white"/>
<path d="M18.5625 8.40771C16.4932 8.40771 14.4704 9.04288 12.7499 10.2329C11.0293 11.4229 9.6883 13.1143 8.89642 15.0933C8.10454 17.0722 7.89735 19.2497 8.30104 21.3505C8.70474 23.4514 9.7012 25.3811 11.1644 26.8957C12.6276 28.4103 14.4919 29.4417 16.5214 29.8596C18.5509 30.2775 20.6546 30.063 22.5663 29.2433C24.4781 28.4236 26.1121 27.0355 27.2618 25.2545C28.4114 23.4736 29.025 21.3797 29.025 19.2377C29.0209 16.3667 27.9172 13.6146 25.956 11.5845C23.9948 9.55441 21.3361 8.41201 18.5625 8.40771ZM18.5625 28.8644C16.7231 28.8644 14.9251 28.2998 13.3957 27.242C11.8663 26.1842 10.6743 24.6807 9.97043 22.9217C9.26654 21.1626 9.08237 19.227 9.44121 17.3596C9.80005 15.4923 10.6858 13.7769 11.9864 12.4306C13.287 11.0843 14.9441 10.1675 16.7482 9.79602C18.5522 9.42458 20.4221 9.61522 22.1215 10.3438C23.8208 11.0725 25.2733 12.3063 26.2952 13.8894C27.3171 15.4725 27.8625 17.3337 27.8625 19.2377C27.8593 21.7898 26.8784 24.2365 25.135 26.0411C23.3916 27.8457 21.028 28.861 18.5625 28.8644Z" fill="white"/>
<path d="M24.9562 22.8474V13.8224C24.9562 13.6628 24.895 13.5098 24.786 13.3969C24.677 13.2841 24.5291 13.2207 24.375 13.2207H22.05C21.8958 13.2207 21.748 13.2841 21.639 13.3969C21.53 13.5098 21.4687 13.6628 21.4687 13.8224V22.8474H20.3062V16.229C20.3062 16.0695 20.245 15.9164 20.136 15.8036C20.027 15.6908 19.8791 15.6274 19.725 15.6274H17.4C17.2458 15.6274 17.098 15.6908 16.989 15.8036C16.88 15.9164 16.8187 16.0695 16.8187 16.229V22.8474H15.6562V19.839C15.6562 19.6795 15.595 19.5264 15.486 19.4136C15.377 19.3008 15.2291 19.2374 15.075 19.2374H12.75C12.5958 19.2374 12.448 19.3008 12.339 19.4136C12.23 19.5264 12.1687 19.6795 12.1687 19.839V22.8474H11.0062V24.0507H26.1187V22.8474H24.9562ZM14.4937 22.8474H13.3312V20.4407H14.4937V22.8474ZM19.1437 22.8474H17.9812V16.8307H19.1437V22.8474ZM23.7937 22.8474H22.6312V14.424H23.7937V22.8474Z" fill="white"/>
</svg>
