<svg width="36" height="38" viewBox="0 0 36 38" fill="none" xmlns="http://www.w3.org/2000/svg">
<g clip-path="url(#clip0)">
<path d="M35.3954 16.9876L32.3541 14.0626V4.36348C32.3541 3.74635 31.8802 3.24597 31.2955 3.24597H23.9749C23.3902 3.24597 22.9162 3.74628 22.9162 4.36348V4.98499L19.2433 1.4524C18.5344 0.7704 17.4653 0.770475 16.7566 1.45232L0.604536 16.9877C0.0366924 17.534 -0.150972 18.3756 0.126482 19.1318C0.404005 19.888 1.07971 20.3766 1.84801 20.3766H4.42771V35.9418C4.42771 36.559 4.90169 37.0594 5.4864 37.0594H14.3397C14.9243 37.0594 15.3984 36.5591 15.3984 35.9418V26.4911H20.6016V35.9419C20.6016 36.5591 21.0755 37.0594 21.6602 37.0594H30.5132C31.0978 37.0594 31.5719 36.5591 31.5718 35.9419V20.3767H34.152C34.9203 20.3767 35.596 19.888 35.8736 19.1319C36.151 18.3756 35.9634 17.534 35.3954 16.9876ZM30.5132 18.1417C29.9285 18.1417 29.4545 18.642 29.4545 19.2592V34.8244H22.719V25.3736C22.719 24.7565 22.245 24.2561 21.6603 24.2561H14.3397C13.755 24.2561 13.281 24.7564 13.281 25.3736V34.8244H6.54503V19.2592C6.54503 18.6421 6.07105 18.1417 5.48633 18.1417H2.54847L18.0001 3.28011L23.262 8.34116C23.5719 8.63922 24.0193 8.71604 24.4027 8.53739C24.7862 8.35853 25.0336 7.9576 25.0336 7.5151V5.48099H30.2369V14.5562C30.2369 14.8706 30.3623 15.1704 30.5826 15.3822L33.4515 18.1417H30.5132Z" fill="white"/>
</g>
<defs>
<clipPath id="clip0">
<rect width="36" height="38" fill="white"/>
</clipPath>
</defs>
</svg>
