<svg width="36" height="38" viewBox="0 0 36 38" fill="none" xmlns="http://www.w3.org/2000/svg">
<path d="M30.825 6.47461H5.11071C2.8921 6.4754 1.09386 8.37381 1.09286 10.7157V26.5516C1.09386 28.8934 2.8921 30.7921 5.11071 30.7926H30.825C33.0436 30.7921 34.8419 28.8934 34.8429 26.5516V10.7157C34.8419 8.37381 33.0436 6.4754 30.825 6.47461V6.47461ZM5.11071 8.17104H30.825C31.9824 8.17422 32.9756 9.04125 33.1955 10.2404L17.9679 19.1978L2.74018 10.2404C2.96016 9.04125 3.95332 8.17422 5.11071 8.17104V8.17104ZM30.825 29.088H5.11071C3.78106 29.0838 2.70377 27.9469 2.7 26.5434V12.1576L17.5741 20.911C17.6946 20.9809 17.83 21.0191 17.9679 21.0215C18.1062 21.0231 18.2421 20.9849 18.3616 20.911L33.2357 12.1576V26.5434C33.2347 27.9482 32.1559 29.0867 30.825 29.088Z" fill="white"/>
</svg>
