<svg width="121" height="112" viewBox="0 0 121 112" fill="none" xmlns="http://www.w3.org/2000/svg">
<path d="M74.4689 32.3935C74.4685 29.8362 73.6489 27.3366 72.1138 25.2105C70.5786 23.0844 68.3969 21.4274 65.8444 20.4491C63.2918 19.4707 60.4832 19.2149 57.7737 19.714C55.0641 20.2131 52.5753 21.4447 50.6219 23.253C48.6685 25.0614 47.3382 27.3653 46.7994 29.8734C46.2606 32.3815 46.5373 34.9811 47.5946 37.3437C48.652 39.7062 50.4424 41.7255 52.7395 43.1461C55.0366 44.5668 57.7373 45.3251 60.5 45.3251C64.2037 45.3209 67.7544 43.9571 70.3732 41.5328C72.9919 39.1085 74.4649 35.8217 74.4689 32.3935ZM49.8397 32.3935C49.8401 30.442 50.4656 28.5344 51.6372 26.9119C52.8088 25.2895 54.4739 24.025 56.4218 23.2784C58.3698 22.5319 60.5131 22.3367 62.5809 22.7176C64.6487 23.0986 66.548 24.0385 68.0386 25.4185C69.5293 26.7986 70.5444 28.5568 70.9556 30.4708C71.3668 32.3849 71.1556 34.3688 70.3487 36.1717C69.5417 37.9746 68.1754 39.5156 66.4224 40.5998C64.6693 41.6839 62.6083 42.2626 60.5 42.2626C57.6734 42.2596 54.9635 41.2188 52.965 39.3686C50.9664 37.5183 49.8425 35.0098 49.8397 32.3935Z" fill="#FAE3E5"/>
<path d="M116.583 105.935L103.098 73.2103C102.978 72.9206 102.766 72.6713 102.49 72.4953C102.214 72.3194 101.887 72.2252 101.552 72.2251H76.0286C76.1846 71.9897 76.3396 71.7613 76.4956 71.5251C86.3165 56.4751 91.2586 43.3098 91.1877 32.4003C91.189 24.8666 87.9571 17.6409 82.2028 12.3128C76.4486 6.98477 68.6434 3.99078 60.5042 3.9895C52.3651 3.98823 44.5588 6.97977 38.8026 12.306C33.0464 17.6323 29.8118 24.8569 29.8104 32.3907C29.7395 43.3098 34.6816 56.4768 44.5025 71.5251C44.6584 71.7639 44.8135 71.9923 44.9694 72.2251H19.446C19.1109 72.2252 18.7838 72.3194 18.5078 72.4953C18.2318 72.6713 18.02 72.9206 17.9004 73.2103L4.41648 105.935C4.32041 106.167 4.28676 106.417 4.31846 106.664C4.35016 106.91 4.44624 107.146 4.59841 107.351C4.75058 107.555 4.95426 107.722 5.19185 107.838C5.42944 107.953 5.69379 108.013 5.96207 108.013H115.038C115.306 108.013 115.571 107.953 115.808 107.838C116.046 107.722 116.249 107.555 116.402 107.351C116.554 107.146 116.65 106.91 116.682 106.664C116.713 106.417 116.68 106.167 116.583 105.935ZM33.1199 32.3933C33.1206 29.0652 33.8294 25.7697 35.2059 22.6951C36.5825 19.6205 38.5998 16.827 41.1427 14.474C43.6856 12.1211 46.7043 10.2548 50.0265 8.98167C53.3486 7.70857 56.9091 7.05361 60.5047 7.05419C64.1003 7.05476 67.6606 7.71086 70.9822 8.98502C74.3039 10.2592 77.3219 12.1265 79.8639 14.4802C82.406 16.834 84.4222 19.6282 85.7976 22.7032C87.173 25.7782 87.8806 29.0739 87.88 32.4021C88.0218 54.1528 66.0527 80.9794 60.5 87.4124C54.9472 80.9821 32.9772 54.1624 33.1199 32.3933ZM59.2399 90.8249C59.3952 90.9939 59.5883 91.1297 59.8059 91.2228C60.0235 91.3159 60.2603 91.3641 60.5 91.3641C60.7397 91.3641 60.9765 91.3159 61.1941 91.2228C61.4117 91.1297 61.6048 90.9939 61.7601 90.8249C66.1524 85.8723 70.2243 80.6835 73.9546 75.2858H100.411L102.529 80.4264L50.8285 97.4461L32.4006 75.2832H47.0435C50.7743 80.6819 54.8469 85.8715 59.2399 90.8249ZM50.7708 100.712H50.7803L81.623 90.5624L93.5859 104.95H37.907L50.7708 100.712ZM20.587 75.2832H28.2251L47.5492 98.5249L28.0351 104.949H8.36316L20.587 75.2832ZM97.7651 104.95L84.9004 89.4783L103.712 83.2859L112.639 104.95H97.7651Z" fill="#FAE3E5"/>
</svg>
