<svg width="220" height="206" viewBox="0 0 220 206" fill="none" xmlns="http://www.w3.org/2000/svg">
<g clip-path="url(#clip0)">
<path d="M213.554 87.5703H203.764C201.47 78.9956 197.869 70.8546 193.011 63.2659L199.936 56.7822C202.452 54.4252 202.452 50.6041 199.936 48.2472L175.628 25.4871C173.112 23.1302 169.031 23.1302 166.513 25.4871L159.589 31.9708C151.486 27.4227 142.789 24.0498 133.633 21.9018V12.7344C133.633 9.4013 130.747 6.69922 127.187 6.69922H92.8132C89.2529 6.69922 86.3674 9.4013 86.3674 12.7344V21.9018C77.2106 24.0494 68.5139 27.4227 60.4115 31.9708L53.4868 25.4871C50.9689 23.1302 46.8882 23.1302 44.3716 25.4871L20.0651 48.2472C17.548 50.6041 17.548 54.4252 20.0651 56.7822L26.9889 63.2659C22.1315 70.8542 18.5299 78.9952 16.2357 87.5703H6.44533C2.88576 87.5703 0 90.2724 0 93.6055V125.793C0 129.126 2.88576 131.829 6.44533 131.829H16.2357C18.5299 140.404 22.1315 148.544 26.9889 156.133L20.0647 162.617C17.5475 164.973 17.5475 168.794 20.0647 171.152L44.3716 193.911C46.8882 196.268 50.9689 196.268 53.4868 193.911L60.4115 187.427C68.5152 191.974 77.2106 195.348 86.3674 197.496V206.663C86.3674 209.997 89.2529 212.699 92.8132 212.699H127.187C130.747 212.699 133.633 209.997 133.633 206.663V197.496C142.789 195.349 151.485 191.976 159.589 187.428L166.513 193.911C169.031 196.268 173.112 196.268 175.628 193.911L199.936 171.152C202.452 168.794 202.452 164.973 199.936 162.617L193.011 156.133C197.869 148.544 201.47 140.404 203.764 131.829H213.554C217.115 131.829 220 129.126 220 125.793V93.6055C220 90.2724 217.115 87.5703 213.554 87.5703Z" fill="#E2DFF4"/>
<path d="M213.554 87.5703H203.764C201.47 78.9956 197.869 70.8546 193.011 63.2659L199.936 56.7822C202.452 54.4252 202.452 50.6041 199.936 48.2472L175.628 25.4871C173.112 23.1302 169.031 23.1302 166.513 25.4871L159.589 31.9708C151.486 27.4227 142.789 24.0498 133.633 21.9018V12.7344C133.633 9.4013 130.747 6.69922 127.187 6.69922H110V212.699H127.187C130.747 212.699 133.633 209.997 133.633 206.663V197.496C142.789 195.349 151.485 191.976 159.589 187.428L166.513 193.911C169.031 196.268 173.112 196.268 175.628 193.911L199.936 171.152C202.452 168.794 202.452 164.973 199.936 162.617L193.011 156.133C197.869 148.544 201.47 140.404 203.764 131.829H213.554C217.115 131.829 220 129.126 220 125.793V93.6055C220 90.2724 217.115 87.5703 213.554 87.5703Z" fill="#BEBCDD"/>
<path d="M110 166.027C76.7759 166.027 49.8434 140.808 49.8434 109.699C49.8434 78.59 76.7759 53.3711 110 53.3711C143.224 53.3711 170.157 78.59 170.157 109.699C170.157 140.808 143.224 166.027 110 166.027Z" fill="#0A789B"/>
<path d="M170.156 109.699C170.156 78.59 143.224 53.3711 110 53.3711V166.027C143.224 166.027 170.156 140.808 170.156 109.699Z" fill="#08475E"/>
<path d="M110 47.3359C73.276 47.3359 43.3989 75.3121 43.3989 109.699C43.3989 144.086 73.276 172.063 110 172.063C146.724 172.063 176.601 144.086 176.601 109.699C176.601 75.3121 146.724 47.3359 110 47.3359ZM150.369 118.24C146.509 119.532 142.167 120.609 137.477 121.464C137.775 117.626 137.929 113.692 137.929 109.699C137.929 105.707 137.775 101.771 137.477 97.9343C142.167 98.7888 146.509 99.8671 150.369 101.158C160.157 104.431 163.711 108.059 163.711 109.699C163.711 111.339 160.157 114.968 150.369 118.24ZM110 159.992C108.248 159.992 104.374 156.665 100.878 147.499C99.5003 143.885 98.348 139.819 97.4358 135.427C101.534 135.707 105.737 135.851 110 135.851C114.263 135.851 118.466 135.707 122.564 135.427C121.652 139.819 120.501 143.885 119.122 147.499C115.626 156.665 111.752 159.992 110 159.992ZM110 123.782C105.066 123.782 100.239 123.575 95.602 123.181C95.1808 118.838 94.9608 114.319 94.9608 109.699C94.9608 105.08 95.1808 100.56 95.602 96.2179C100.239 95.8232 105.066 95.6172 110 95.6172C114.934 95.6172 119.76 95.8232 124.398 96.2179C124.819 100.56 125.039 105.08 125.039 109.699C125.039 114.319 124.819 118.838 124.398 123.181C119.76 123.575 114.934 123.782 110 123.782ZM56.2891 109.699C56.2891 108.059 59.8426 104.431 69.6312 101.158C73.4906 99.8671 77.833 98.7888 82.5227 97.9343C82.2249 101.771 82.0706 105.707 82.0706 109.699C82.0706 113.692 82.2249 117.626 82.5227 121.464C77.833 120.609 73.4906 119.532 69.6299 118.24C59.8426 114.968 56.2891 111.339 56.2891 109.699ZM110 59.4062C111.752 59.4062 115.626 62.7333 119.122 71.899C120.5 75.5136 121.652 79.5797 122.564 83.9706C118.466 83.6913 114.263 83.5469 110 83.5469C105.737 83.5469 101.534 83.6913 97.4358 83.9706C98.348 79.5797 99.4989 75.5136 100.878 71.899C104.374 62.7333 108.248 59.4062 110 59.4062ZM160.227 91.8859C158.552 91.1664 156.722 90.4651 154.704 89.7909C149.164 87.938 142.803 86.4735 135.922 85.4266C134.805 78.9835 133.241 73.028 131.262 67.8398C130.542 65.9515 129.793 64.238 129.025 62.6689C143.361 67.7701 154.778 78.4612 160.227 91.8859ZM90.9753 62.6685C90.2079 64.238 89.4581 65.9511 88.7391 67.8394C86.7604 73.0276 85.1962 78.9831 84.0775 85.4262C77.1971 86.4731 70.8359 87.9376 65.2956 89.7905C63.2794 90.4647 61.4497 91.166 59.7728 91.8855C65.2219 78.4612 76.639 67.7702 90.9753 62.6685ZM59.7728 127.513C61.4483 128.231 63.2781 128.933 65.2956 129.608C70.8359 131.461 77.1971 132.924 84.0775 133.972C85.1949 140.415 86.759 146.37 88.7377 151.558C89.4581 153.447 90.2066 155.161 90.9753 156.729C76.639 151.628 65.2219 140.937 59.7728 127.513ZM129.025 156.73C129.792 155.161 130.542 153.447 131.261 151.56C133.239 146.371 134.804 140.415 135.922 133.972C142.803 132.926 149.164 131.461 154.704 129.608C156.72 128.933 158.55 128.233 160.227 127.513C154.778 140.937 143.361 151.628 129.025 156.73Z" fill="#0FA7DA"/>
<path d="M119.122 71.899C120.5 75.5136 121.652 79.5797 122.564 83.9706C118.466 83.6913 114.263 83.5469 110 83.5469V95.6172C114.934 95.6172 119.76 95.8232 124.398 96.2179C124.819 100.56 125.039 105.08 125.039 109.699C125.039 114.319 124.819 118.838 124.398 123.181C119.76 123.575 114.934 123.782 110 123.782V135.851C114.263 135.851 118.466 135.707 122.564 135.427C121.652 139.819 120.501 143.885 119.122 147.499C115.626 156.665 111.752 159.992 110 159.992V172.063C146.724 172.063 176.601 144.086 176.601 109.699C176.601 75.3121 146.724 47.3359 110 47.3359V59.4062C111.752 59.4062 115.626 62.7333 119.122 71.899ZM163.711 109.699C163.711 111.339 160.157 114.968 150.369 118.24C146.509 119.532 142.167 120.609 137.477 121.464C137.775 117.626 137.929 113.692 137.929 109.699C137.929 105.707 137.775 101.771 137.477 97.9343C142.167 98.7888 146.509 99.8671 150.369 101.158C160.157 104.431 163.711 108.059 163.711 109.699ZM160.227 91.8859C158.551 91.1664 156.722 90.4651 154.704 89.7909C149.164 87.938 142.803 86.4735 135.922 85.4266C134.805 78.9835 133.241 73.028 131.262 67.8398C130.542 65.9515 129.793 64.238 129.025 62.6689C143.361 67.7701 154.778 78.4612 160.227 91.8859ZM131.261 151.56C133.239 146.371 134.804 140.415 135.922 133.972C142.803 132.926 149.164 131.461 154.704 129.608C156.72 128.933 158.55 128.233 160.227 127.513C154.778 140.938 143.361 151.629 129.025 156.73C129.792 155.161 130.542 153.447 131.261 151.56Z" fill="#0A789B"/>
</g>
<defs>
<clipPath id="clip0">
<rect width="220" height="206" fill="white"/>
</clipPath>
</defs>
</svg>
