<svg width="121" height="112" viewBox="0 0 121 112" fill="none" xmlns="http://www.w3.org/2000/svg">
<path d="M95.6282 69.38C93.151 66.9925 90.163 65.716 86.9963 65.716C83.8552 65.716 80.8417 66.9688 78.2624 69.3563L70.1924 76.8024C69.5284 76.4715 68.8645 76.1642 68.226 75.8569C67.3066 75.4314 66.4384 75.0295 65.6978 74.604C58.1385 70.16 51.2689 64.3686 44.6801 56.8753C41.4878 53.1404 39.3427 49.9965 37.7849 46.8053C39.879 45.0324 41.8198 43.1887 43.7096 41.4158C44.4247 40.7539 45.1398 40.0684 45.8548 39.4065C51.2178 34.4425 51.2178 28.0128 45.8548 23.0488L38.883 16.5955C38.0913 15.8627 37.2741 15.1063 36.508 14.3498C34.9757 12.8843 33.3668 11.3714 31.7068 9.95311C29.2297 7.68383 26.2673 6.47827 23.1516 6.47827C20.036 6.47827 17.0226 7.68383 14.4688 9.95311C14.4432 9.97675 14.4432 9.97675 14.4177 10.0004L5.73482 18.1083C2.46597 21.1341 0.601703 24.8216 0.193097 29.1002C-0.419812 36.0026 1.77645 42.4322 3.46195 46.6399C7.59908 56.9698 13.7792 66.5434 22.9984 76.8024C34.184 89.1653 47.6425 98.9279 63.0163 105.807C68.89 108.383 76.7301 111.433 85.4896 111.953C86.0259 111.976 86.5877 112 87.0985 112C92.9977 112 97.9521 110.038 101.834 106.138C101.859 106.09 101.91 106.067 101.936 106.019C103.264 104.53 104.796 103.183 106.405 101.741C107.503 100.772 108.627 99.7553 109.725 98.6915C112.253 96.2568 113.581 93.4202 113.581 90.5127C113.581 87.5815 112.228 84.7685 109.648 82.4047L95.6282 69.38ZM104.771 94.2712C104.745 94.2712 104.745 94.2948 104.771 94.2712C103.775 95.264 102.753 96.1622 101.655 97.155C99.9951 98.6206 98.3096 100.157 96.7263 101.883C94.147 104.436 91.1079 105.641 87.124 105.641C86.741 105.641 86.3324 105.641 85.9493 105.618C78.3645 105.168 71.3161 102.426 66.0297 100.086C51.5753 93.6093 38.883 84.414 28.3358 72.7602C19.6274 63.0449 13.8048 54.0623 9.94857 44.4179C7.57354 38.5319 6.70526 33.9461 7.08832 29.6202C7.3437 26.8545 8.49291 24.5616 10.6126 22.5996L19.321 14.539C20.5723 13.4516 21.9003 12.8606 23.2027 12.8606C24.8116 12.8606 26.114 13.7589 26.9313 14.5153C26.9568 14.539 26.9823 14.5626 27.0079 14.5862C28.5657 15.9336 30.0469 17.3283 31.6047 18.8175C32.3964 19.5739 33.2136 20.3304 34.0308 21.1104L41.0026 27.5637C43.7096 30.0694 43.7096 32.3859 41.0026 34.8916C40.262 35.5771 39.547 36.2626 38.8064 36.9245C36.6612 38.9574 34.6182 40.8485 32.3964 42.6922C32.3453 42.7395 32.2942 42.7632 32.2687 42.8104C30.0724 44.8433 30.481 46.829 30.9407 48.1763C30.9662 48.2473 30.9918 48.3182 31.0173 48.3891C32.8305 52.4549 35.3843 56.2843 39.2661 60.8465L39.2916 60.8702C46.34 68.9072 53.7716 75.1714 61.9692 79.9699C63.0163 80.5845 64.0889 81.081 65.1104 81.5537C66.0297 81.9792 66.898 82.3811 67.6386 82.8066C67.7408 82.8538 67.8429 82.9248 67.9451 82.972C68.8134 83.3739 69.6306 83.563 70.4733 83.563C72.593 83.563 73.921 82.3338 74.3551 81.9319L83.0891 73.8476C83.9573 73.0439 85.3364 72.0747 86.9453 72.0747C88.5286 72.0747 89.831 72.9966 90.6227 73.8003C90.6483 73.824 90.6483 73.824 90.6738 73.8476L104.745 86.8724C107.376 89.2835 107.376 91.7655 104.771 94.2712Z" fill="#FAE3E5"/>
<path d="M65.3912 26.6418C72.0821 27.6819 78.1601 30.6131 83.0123 35.1043C87.8645 39.5956 91.0056 45.2216 92.1549 51.4148C92.4358 52.975 93.8914 54.0623 95.5514 54.0623C95.7557 54.0623 95.9345 54.0387 96.1388 54.015C98.0286 53.7314 99.2799 52.0767 98.9735 50.3275C97.5944 42.8341 93.7637 36.0026 87.9156 30.5894C82.0674 25.1762 74.687 21.6305 66.5915 20.354C64.7017 20.0703 62.9395 21.2286 62.6075 22.9542C62.2756 24.6798 63.5014 26.3581 65.3912 26.6418Z" fill="#FAE3E5"/>
<path d="M120.86 49.4056C118.587 37.0663 112.304 25.8381 102.651 16.9028C92.9977 7.9675 80.8673 2.15247 67.5365 0.0486513C65.6722 -0.258648 63.9101 0.923271 63.5781 2.64887C63.2717 4.39811 64.523 6.02916 66.4128 6.33646C78.3135 8.20389 89.1671 13.428 97.7989 21.3941C106.431 29.3839 112.049 39.4302 114.066 50.4456C114.347 52.0058 115.803 53.0931 117.463 53.0931C117.667 53.0931 117.846 53.0695 118.05 53.0459C119.915 52.7858 121.192 51.1312 120.86 49.4056Z" fill="#FAE3E5"/>
</svg>
