<svg width="175" height="151" viewBox="0 0 175 151" fill="none" xmlns="http://www.w3.org/2000/svg">
<path d="M174.976 71.2762C174.839 70.0951 173.994 69.0504 172.776 68.5518L5.33398 0.270164C5.20483 0.215752 5.06747 0.215751 4.93083 0.181184C4.71035 0.112689 4.48951 0.0515552 4.26082 0.0243492C4.03213 -0.00285683 3.8195 -0.00317694 3.59081 0.00386461C3.38532 0.0176276 3.18767 0.0313909 2.98217 0.0723599C2.75384 0.113329 2.54834 0.174782 2.34285 0.249999C2.22083 0.298009 2.09168 0.304731 1.96967 0.359463C1.87834 0.400432 1.82482 0.468607 1.74134 0.516297C1.57401 0.611678 1.42952 0.721143 1.28468 0.837328C1.07918 1.0012 0.896514 1.16508 0.736683 1.35616C0.691017 1.41089 0.622518 1.44514 0.576851 1.5066C0.523337 1.57509 0.516201 1.65671 0.470178 1.73193C0.341029 1.94349 0.234356 2.1621 0.158364 2.40119C0.0973574 2.55803 0.0591834 2.7155 0.0363504 2.87906C0.00602522 3.0839 -0.00931574 3.28875 0.00602521 3.50063C0.0135173 3.69844 0.0363504 3.89656 0.0823732 4.08764C0.0973574 4.17662 0.0823732 4.26528 0.112698 4.35394L45.7788 140.917C46.1138 141.921 46.9354 142.734 48.0243 143.116C48.4809 143.273 48.9526 143.355 49.4246 143.355C50.0946 143.355 50.7568 143.198 51.3426 142.891L89.6943 122.761L123.008 149.323C123.198 149.473 123.426 149.548 123.632 149.664C123.799 149.753 123.944 149.862 124.126 149.931C124.575 150.095 125.047 150.183 125.534 150.183C126.006 150.183 126.47 150.088 126.92 149.931C126.958 149.917 127.003 149.91 127.041 149.896C127.14 149.855 127.216 149.781 127.308 149.733C127.331 149.725 127.346 149.712 127.361 149.698C127.566 149.596 127.787 149.527 127.977 149.384C128.031 149.343 128.054 149.288 128.099 149.247C128.168 149.193 128.228 149.145 128.29 149.083C128.312 149.056 128.35 149.049 128.381 149.022C128.457 148.947 128.48 148.844 128.549 148.762C128.693 148.585 128.83 148.414 128.937 148.223C128.982 148.134 129.028 148.059 129.066 147.971C129.112 147.855 129.142 147.738 129.173 147.622C129.234 147.404 129.272 147.192 129.287 146.967C129.294 146.892 129.332 146.83 129.332 146.755V104.079L173.477 74.3761C174.55 73.6524 175.128 72.4781 174.976 71.2762ZM51.6776 134.799L12.8996 18.8429L96.7654 111.132L51.6776 134.799ZM96.6055 119.128L101.058 116.793L109.483 129.398L96.6055 119.128ZM121.737 134.423H121.729L106.195 111.194C106.058 110.729 105.815 110.286 105.472 109.91L38.5942 36.3095L121.737 103.908V134.423ZM125.763 97.9675L24.3846 15.5378L163.78 72.3824L125.763 97.9675Z" fill="#CF0015"/>
</svg>
