<svg width="164" height="160" viewBox="0 0 164 160" fill="none" xmlns="http://www.w3.org/2000/svg">
<g clip-path="url(#clip0)">
<path d="M22.7793 42.5574H150.904C153.623 42.5574 156.23 43.6109 158.152 45.4863C160.074 47.3617 161.154 49.9052 161.154 52.5574V117.557H12.5293V52.5574C12.5293 49.9052 13.6092 47.3617 15.5315 45.4863C17.4537 43.6109 20.0608 42.5574 22.7793 42.5574Z" fill="#46F8FF"/>
<path d="M161.154 52.5574V117.557H150.904V52.5574C150.904 49.9052 149.824 47.3617 147.902 45.4863C145.98 43.6109 143.373 42.5574 140.654 42.5574H150.904C153.623 42.5574 156.23 43.6109 158.152 45.4863C160.074 47.3617 161.154 49.9052 161.154 52.5574Z" fill="#00D7DF"/>
<path d="M86.8418 57.5571C99.5789 57.5571 109.904 47.4835 109.904 35.0571C109.904 22.6307 99.5789 12.5571 86.8418 12.5571C74.1047 12.5571 63.7793 22.6307 63.7793 35.0571C63.7793 47.4835 74.1047 57.5571 86.8418 57.5571Z" fill="#57A4FF"/>
<path d="M161.154 117.557V120.057C161.154 123.373 159.804 126.552 157.402 128.896C154.999 131.24 151.74 132.557 148.342 132.557H25.3418C21.9437 132.557 18.6848 131.24 16.282 128.896C13.8792 126.552 12.5293 123.373 12.5293 120.057V117.557H161.154Z" fill="#57A4FF"/>
<path d="M161.154 117.557V120.057C161.154 123.373 159.804 126.552 157.402 128.896C154.999 131.24 151.74 132.557 148.342 132.557H138.092C141.49 132.557 144.749 131.24 147.152 128.896C149.554 126.552 150.904 123.373 150.904 120.057V117.557H161.154Z" fill="#006DF0"/>
<path d="M150.904 97.5571L132.967 103.932V91.1821L150.904 97.5571Z" fill="#C6C5CA"/>
<path d="M143.217 52.5571C145.256 52.5571 147.211 53.3473 148.653 54.7538C150.094 56.1603 150.904 58.068 150.904 60.0571C150.904 62.0463 150.094 63.9539 148.653 65.3604C147.211 66.767 145.256 67.5571 143.217 67.5571H127.842C125.803 67.5571 123.848 66.767 122.406 65.3604C120.964 63.9539 120.154 62.0463 120.154 60.0571C120.154 58.068 120.964 56.1603 122.406 54.7538C123.848 53.3473 125.803 52.5571 127.842 52.5571H143.217Z" fill="#FFDE55"/>
<path d="M132.967 91.1824V103.932L122.717 107.557V97.5574V87.5574L132.967 91.1824Z" fill="#898890"/>
<path d="M38.1543 97.5574H122.717V107.557H38.1543V97.5574Z" fill="#FF7956"/>
<path d="M38.1543 87.5574H122.717V97.5574H38.1543V87.5574Z" fill="#57A4FF"/>
<path d="M122.717 157.557H50.9668L63.7793 147.557H109.904L122.717 157.557Z" fill="#C6C5CA"/>
<path d="M122.717 157.557H112.467L99.6543 147.557H109.904L122.717 157.557Z" fill="#898890"/>
<path d="M105.292 21.5571C108.292 25.4487 109.911 30.1877 109.904 35.0571C109.905 35.8927 109.854 36.7276 109.751 37.5571H86.8418V12.5571C90.4224 12.5556 93.9541 13.3682 97.1567 14.9304C100.359 16.4927 103.145 18.7616 105.292 21.5571Z" fill="#FF7956"/>
<path d="M99.6543 67.5571C101.012 67.5611 102.313 68.0891 103.274 69.026C104.234 69.9628 104.775 71.2323 104.779 72.5571C104.769 73.8802 104.226 75.1463 103.267 76.0818C102.308 77.0174 101.01 77.5473 99.6543 77.5571H74.0293C72.6713 77.5532 71.3701 77.0251 70.4099 76.0883C69.4496 75.1515 68.9084 73.882 68.9043 72.5571C68.9144 71.2341 69.4575 69.968 70.4165 69.0324C71.3754 68.0969 72.6732 67.5669 74.0293 67.5571H99.6543Z" fill="#FFDE55"/>
<path d="M94.5293 132.557L97.0918 147.557H76.5918L79.1543 132.557H94.5293Z" fill="#898890"/>
<path d="M95.8106 140.057H77.873L79.1543 132.557H94.5293L95.8106 140.057Z" fill="#57565C"/>
<path d="M95.8106 140.057H77.873L79.1543 132.557H94.5293L95.8106 140.057Z" fill="#57565C"/>
<path d="M43.2793 12.5571C45.9978 12.5571 48.6049 13.6107 50.5271 15.4861C52.4494 17.3614 53.5293 19.905 53.5293 22.5571C53.5293 25.2093 52.4494 27.7528 50.5271 29.6282C48.6049 31.5036 45.9978 32.5571 43.2793 32.5571H22.7793C20.0608 32.5571 17.4537 31.5036 15.5315 29.6282C13.6092 27.7528 12.5293 25.2093 12.5293 22.5571C12.5293 19.905 13.6092 17.3614 15.5315 15.4861C17.4537 13.6107 20.0608 12.5571 22.7793 12.5571H43.2793Z" fill="#FFDE55"/>
<path d="M150.904 60.0571C150.904 62.0462 150.094 63.9539 148.653 65.3604C147.211 66.7669 145.256 67.5571 143.217 67.5571H132.967C135.006 67.5571 136.961 66.7669 138.403 65.3604C139.844 63.9539 140.654 62.0462 140.654 60.0571C140.654 58.068 139.844 56.1603 138.403 54.7538C136.961 53.3473 135.006 52.5571 132.967 52.5571H143.217C145.256 52.5571 147.211 53.3473 148.653 54.7538C150.094 56.1603 150.904 58.068 150.904 60.0571Z" fill="#EBBF00"/>
<path d="M104.779 72.5571C104.769 73.8802 104.226 75.1463 103.267 76.0818C102.308 77.0174 101.01 77.5473 99.6543 77.5571H89.4043C90.7604 77.5473 92.0581 77.0174 93.0171 76.0818C93.9761 75.1463 94.5192 73.8802 94.5293 72.5571C94.5252 71.2323 93.984 69.9628 93.0237 69.026C92.0635 68.0891 90.7623 67.5611 89.4043 67.5571H99.6543C101.012 67.5611 102.313 68.0891 103.274 69.026C104.234 69.9628 104.775 71.2323 104.779 72.5571Z" fill="#EBBF00"/>
<path d="M53.5293 22.5571C53.531 23.8708 53.267 25.1719 52.7525 26.3859C52.238 27.5999 51.483 28.703 50.5309 29.6319C49.5788 30.5608 48.4481 31.2973 47.2038 31.7993C45.9594 32.3012 44.6258 32.5588 43.2793 32.5571H33.0293C35.7478 32.5571 38.3549 31.5036 40.2771 29.6282C42.1994 27.7528 43.2793 25.2093 43.2793 22.5571C43.2793 19.905 42.1994 17.3614 40.2771 15.4861C38.3549 13.6107 35.7478 12.5571 33.0293 12.5571H43.2793C45.9978 12.5571 48.6049 13.6107 50.5271 15.4861C52.4494 17.3614 53.5293 19.905 53.5293 22.5571Z" fill="#EBBF00"/>
<path d="M38.1543 97.5574V107.557H33.0293C30.3108 107.557 27.7037 106.504 25.7815 104.628C23.8592 102.753 22.7793 100.21 22.7793 97.5574C22.7793 94.9052 23.8592 92.3617 25.7815 90.4863C27.7037 88.6109 30.3108 87.5574 33.0293 87.5574H38.1543V97.5574Z" fill="#C6C5CA"/>
<path d="M148.342 40.0572H111.954C112.293 38.411 112.465 36.7362 112.467 35.0572C112.459 30.5068 111.174 26.0454 108.751 22.1572L118.437 15.0572H138.092V10.0572H117.592C117.037 10.0542 116.496 10.23 116.054 10.5572L105.676 18.1572C102.19 14.4461 97.6363 11.8496 92.6113 10.7083C87.5863 9.56692 82.325 9.93402 77.5176 11.7614C72.7102 13.5888 68.5812 16.7912 65.6723 20.9484C62.7633 25.1056 61.2102 30.0236 61.2168 35.0572C61.2185 36.7362 61.3901 38.411 61.7293 40.0572H25.3418C21.2641 40.0572 17.3534 41.6375 14.47 44.4506C11.5867 47.2636 9.9668 51.0789 9.9668 55.0572V120.057C9.9668 124.035 11.5867 127.851 14.47 130.664C17.3534 133.477 21.2641 135.057 25.3418 135.057H76.1305L74.4137 145.057H63.7793C63.2005 145.056 62.639 145.25 62.1905 145.607L49.378 155.607C48.9586 155.926 48.6534 156.366 48.5061 156.865C48.3588 157.363 48.377 157.894 48.558 158.382C48.7328 158.87 49.0583 159.293 49.4897 159.593C49.921 159.893 50.4371 160.055 50.9668 160.057H122.717C123.246 160.055 123.763 159.893 124.194 159.593C124.625 159.293 124.951 158.87 125.126 158.382C125.307 157.894 125.325 157.363 125.177 156.865C125.03 156.366 124.725 155.926 124.306 155.607L111.493 145.607C111.045 145.25 110.483 145.056 109.904 145.057H99.2699L97.553 135.057H148.342C152.419 135.057 156.33 133.477 159.214 130.664C162.097 127.851 163.717 124.035 163.717 120.057V55.0572C163.717 51.0789 162.097 47.2636 159.214 44.4506C156.33 41.6375 152.419 40.0572 148.342 40.0572ZM89.4043 15.2322C94.0268 15.7992 98.3121 17.8896 101.551 21.1572L95.5543 25.5572L98.6293 29.5572L104.626 25.1572C106.403 28.1685 107.34 31.5822 107.342 35.0572H89.4043V15.2322ZM84.2793 15.2322V37.5572C84.2793 38.2202 84.5493 38.8561 85.0298 39.3249C85.5104 39.7938 86.1622 40.0572 86.8418 40.0572H106.676C105.839 43.2499 104.205 46.1906 101.919 48.6162C99.6324 51.0418 96.7654 52.8767 93.5742 53.9566C90.3831 55.0364 86.9673 55.3277 83.6325 54.8043C80.2977 54.2808 77.1479 52.9591 74.4649 50.9572L81.2555 41.4822L77.053 38.6322L70.7493 47.4072C68.4991 44.6303 67.0467 41.3193 66.5411 37.814C66.0354 34.3087 66.4948 30.7353 67.8719 27.4603C69.2491 24.1853 71.4945 21.3268 74.3778 19.1779C77.2611 17.029 80.6785 15.6672 84.2793 15.2322ZM109.007 150.057L115.414 155.057H58.2699L64.6762 150.057H109.007ZM79.6155 145.057L81.3324 135.057H92.3512L94.068 145.057H79.6155ZM148.342 130.057H25.3418C22.6233 130.057 20.0162 129.004 18.094 127.128C16.1717 125.253 15.0918 122.709 15.0918 120.057H158.592C158.592 122.709 157.512 125.253 155.59 127.128C153.667 129.004 151.06 130.057 148.342 130.057ZM158.592 115.057H15.0918V55.0572C15.0918 52.405 16.1717 49.8615 18.094 47.9861C20.0162 46.1107 22.6233 45.0572 25.3418 45.0572H63.3693C64.4573 47.459 65.9276 49.678 67.7255 51.6322L59.8843 62.5572H33.0293C30.9923 62.5631 29.0405 63.3552 27.6001 64.7604C26.1598 66.1657 25.3479 68.0699 25.3418 70.0572V80.0572H30.4668V70.0572C30.4668 69.3941 30.7368 68.7582 31.2173 68.2894C31.6979 67.8206 32.3497 67.5572 33.0293 67.5572H61.2168C61.6299 67.5565 62.0368 67.4584 62.4026 67.2712C62.7685 67.084 63.0826 66.8133 63.318 66.4822L71.518 55.0572C74.6055 57.32 78.1783 58.871 81.9682 59.5936C85.7581 60.3162 89.6665 60.1916 93.4 59.2293C97.1335 58.2669 100.595 56.4918 103.524 54.0373C106.454 51.5827 108.775 48.5125 110.314 45.0572H148.342C151.06 45.0572 153.667 46.1107 155.59 47.9861C157.512 49.8615 158.592 52.405 158.592 55.0572V115.057Z" fill="black"/>
<path d="M143.217 10.0571H153.467V15.0571H143.217V10.0571Z" fill="black"/>
<path d="M117.592 20.0574H122.717V25.0574H117.592V20.0574Z" fill="black"/>
<path d="M127.842 20.0574H153.467V25.0574H127.842V20.0574Z" fill="black"/>
<path d="M117.592 30.0574H138.092V35.0574H117.592V30.0574Z" fill="black"/>
<path d="M143.217 30.0574H153.467V35.0574H143.217V30.0574Z" fill="black"/>
<path d="M22.7793 35.0571H43.2793C46.6774 35.0571 49.9363 33.7402 52.3391 31.396C54.7419 29.0518 56.0918 25.8723 56.0918 22.5571C56.0918 19.2419 54.7419 16.0625 52.3391 13.7183C49.9363 11.3741 46.6774 10.0571 43.2793 10.0571H22.7793C19.3812 10.0571 16.1223 11.3741 13.7195 13.7183C11.3167 16.0625 9.9668 19.2419 9.9668 22.5571C9.9668 25.8723 11.3167 29.0518 13.7195 31.396C16.1223 33.7402 19.3812 35.0571 22.7793 35.0571ZM22.7793 15.0571H43.2793C45.3181 15.0571 47.2735 15.8473 48.7152 17.2538C50.1569 18.6603 50.9668 20.568 50.9668 22.5571C50.9668 24.5462 50.1569 26.4539 48.7152 27.8604C47.2735 29.2669 45.3181 30.0571 43.2793 30.0571H22.7793C20.7404 30.0571 18.7851 29.2669 17.3434 27.8604C15.9017 26.4539 15.0918 24.5462 15.0918 22.5571C15.0918 20.568 15.9017 18.6603 17.3434 17.2538C18.7851 15.8473 20.7404 15.0571 22.7793 15.0571Z" fill="black"/>
<path d="M127.842 70.0571H143.217C145.935 70.0571 148.542 69.0036 150.465 67.1282C152.387 65.2528 153.467 62.7093 153.467 60.0571C153.467 57.405 152.387 54.8614 150.465 52.9861C148.542 51.1107 145.935 50.0571 143.217 50.0571H127.842C125.123 50.0571 122.516 51.1107 120.594 52.9861C118.672 54.8614 117.592 57.405 117.592 60.0571C117.592 62.7093 118.672 65.2528 120.594 67.1282C122.516 69.0036 125.123 70.0571 127.842 70.0571ZM127.842 55.0571H143.217C144.576 55.0571 145.88 55.5839 146.841 56.5216C147.802 57.4593 148.342 58.731 148.342 60.0571C148.342 61.3832 147.802 62.655 146.841 63.5927C145.88 64.5303 144.576 65.0571 143.217 65.0571H127.842C126.483 65.0571 125.179 64.5303 124.218 63.5927C123.257 62.655 122.717 61.3832 122.717 60.0571C122.717 58.731 123.257 57.4593 124.218 56.5216C125.179 55.5839 126.483 55.0571 127.842 55.0571Z" fill="black"/>
<path d="M74.0293 80.0574H99.6543C101.693 80.0574 103.648 79.2672 105.09 77.8607C106.532 76.4541 107.342 74.5465 107.342 72.5574C107.342 70.5682 106.532 68.6606 105.09 67.2541C103.648 65.8475 101.693 65.0574 99.6543 65.0574H74.0293C71.9904 65.0574 70.0351 65.8475 68.5934 67.2541C67.1517 68.6606 66.3418 70.5682 66.3418 72.5574C66.3418 74.5465 67.1517 76.4541 68.5934 77.8607C70.0351 79.2672 71.9904 80.0574 74.0293 80.0574ZM74.0293 70.0574H99.6543C100.334 70.0574 100.986 70.3208 101.466 70.7896C101.947 71.2584 102.217 71.8943 102.217 72.5574C102.217 73.2204 101.947 73.8563 101.466 74.3251C100.986 74.794 100.334 75.0574 99.6543 75.0574H74.0293C73.3497 75.0574 72.6979 74.794 72.2173 74.3251C71.7368 73.8563 71.4668 73.2204 71.4668 72.5574C71.4668 71.8943 71.7368 71.2584 72.2173 70.7896C72.6979 70.3208 73.3497 70.0574 74.0293 70.0574Z" fill="black"/>
<path d="M33.0293 110.057H122.717C123.016 110.057 123.312 110.005 123.593 109.905L151.781 99.9049C152.274 99.7287 152.699 99.4091 153 98.9892C153.301 98.5694 153.462 98.0696 153.462 97.5574C153.462 97.0452 153.301 96.5454 153 96.1255C152.699 95.7056 152.274 95.386 151.781 95.2099L123.593 85.2099C123.312 85.1095 123.016 85.0579 122.717 85.0574H33.0293C29.6312 85.0574 26.3723 86.3743 23.9695 88.7185C21.5667 91.0627 20.2168 94.2422 20.2168 97.5574C20.2168 100.873 21.5667 104.052 23.9695 106.396C26.3723 108.74 29.6312 110.057 33.0293 110.057ZM125.279 91.1274L130.404 92.9449V102.17L125.279 103.987V91.1274ZM120.154 95.0574H40.7168V90.0574H120.154V95.0574ZM40.7168 100.057H120.154V105.057H40.7168V100.057ZM135.529 100.352V94.7624L143.406 97.5574L135.529 100.352ZM33.0293 90.0574H35.5918V105.057H33.0293C30.9904 105.057 29.0351 104.267 27.5934 102.861C26.1517 101.454 25.3418 99.5465 25.3418 97.5574C25.3418 95.5682 26.1517 93.6606 27.5934 92.2541C29.0351 90.8476 30.9904 90.0574 33.0293 90.0574Z" fill="black"/>
</g>
<defs>
<clipPath id="clip0">
<rect width="164" height="160" fill="white"/>
</clipPath>
</defs>
</svg>
