<svg width="36" height="38" viewBox="0 0 36 38" fill="none" xmlns="http://www.w3.org/2000/svg">
<path d="M34.2 7.5999H26.4V5.06657C26.398 3.31841 25.0562 1.90207 23.4 1.8999H12.6C10.9438 1.90207 9.60205 3.31841 9.6 5.06657V7.5999H1.8C0.805957 7.5999 0 8.45063 0 9.4999V23.5978C0.00380859 24.4012 0.483398 25.1158 1.2 25.3858V34.1999C1.2 35.2492 2.00596 36.0999 3 36.0999H33C33.994 36.0999 34.8 35.2492 34.8 34.1999V25.3864C35.5166 25.1161 35.9965 24.4012 36 23.5978V9.4999C36 8.45063 35.194 7.5999 34.2 7.5999ZM10.8 5.06657C10.8 4.0173 11.606 3.16657 12.6 3.16657H23.4C24.394 3.16657 25.2 4.0173 25.2 5.06657V7.5999H24V5.06657C24 4.71681 23.7313 4.43324 23.4 4.43324H12.6C12.2687 4.43324 12 4.71681 12 5.06657V7.5999H10.8V5.06657ZM22.8 7.5999H13.2V5.6999H22.8V7.5999ZM33.6 34.1999C33.6 34.5497 33.3313 34.8332 33 34.8332H3C2.66865 34.8332 2.4 34.5497 2.4 34.1999V25.6035L15.6 27.5252V29.1332C15.6 30.1825 16.406 31.0332 17.4 31.0332H18.6C19.594 31.0332 20.4 30.1825 20.4 29.1332V27.5252L33.6 25.6035V34.1999ZM19.2 29.1332C19.2 29.483 18.9313 29.7666 18.6 29.7666H17.4C17.0687 29.7666 16.8 29.483 16.8 29.1332V25.3332C16.8 24.9835 17.0687 24.6999 17.4 24.6999H18.6C18.9313 24.6999 19.2 24.9835 19.2 25.3332V29.1332ZM34.8 23.5978C34.8003 23.9135 34.5803 24.1813 34.2841 24.2255L34.1177 24.2496L20.4 26.2464V25.3332C20.4 24.284 19.594 23.4332 18.6 23.4332H17.4C16.406 23.4332 15.6 24.284 15.6 25.3332V26.2464L1.7165 24.2255C1.42031 24.1816 1.19971 23.9138 1.2 23.5978V9.4999C1.2 9.15015 1.46865 8.86657 1.8 8.86657H34.2C34.5313 8.86657 34.8 9.15015 34.8 9.4999V23.5978Z" fill="white"/>
</svg>
